<svg width="40" height="40" viewBox="0 0 40 40" fill="none" xmlns="http://www.w3.org/2000/svg">
<path d="M24.9997 37.9163H14.9997C5.94967 37.9163 2.08301 34.0497 2.08301 24.9997V14.9997C2.08301 5.94967 5.94967 2.08301 14.9997 2.08301H24.9997C34.0497 2.08301 37.9163 5.94967 37.9163 14.9997V24.9997C37.9163 34.0497 34.0497 37.9163 24.9997 37.9163ZM14.9997 4.58301C7.31634 4.58301 4.58301 7.31634 4.58301 14.9997V24.9997C4.58301 32.683 7.31634 35.4163 14.9997 35.4163H24.9997C32.683 35.4163 35.4163 32.683 35.4163 24.9997V14.9997C35.4163 7.31634 32.683 4.58301 24.9997 4.58301H14.9997Z" fill="#332A89"/>
<path d="M20.0005 31.5829C19.6005 31.5829 19.2005 31.4828 18.8672 31.2995C16.9339 30.2495 13.5172 29.1161 11.3672 28.8328L11.0505 28.7828C9.4172 28.5828 8.11719 27.1162 8.11719 25.4328V12.5995C8.11719 11.6495 8.51723 10.7328 9.20056 10.0995C9.90056 9.46616 10.8005 9.14951 11.7672 9.23284C14.2005 9.43284 17.7339 10.5995 19.8172 11.8995L19.9838 11.9995L20.0506 11.9495C22.1506 10.6329 25.6839 9.44951 28.1339 9.23284C28.1672 9.23284 28.2672 9.23284 28.3005 9.23284C29.1672 9.14951 30.1005 9.48283 30.7838 10.0995C31.4838 10.7328 31.8672 11.6161 31.8672 12.5828V25.3995C31.8672 27.0661 30.5672 28.5328 28.9172 28.7495L28.5672 28.7995C26.4339 29.0828 23.0005 30.2162 21.1005 31.2662C20.7838 31.4995 20.4005 31.5829 20.0005 31.5829ZM11.4839 11.7495C11.2506 11.7495 11.0505 11.8328 10.9005 11.9662C10.7172 12.1328 10.6339 12.3662 10.6339 12.6162V25.4495C10.6339 25.8495 11.0006 26.2662 11.3839 26.3162L11.7006 26.3662C14.1339 26.6995 17.8672 27.9162 20.0339 29.0995C22.0506 27.9328 25.8005 26.6828 28.2505 26.3662L28.6172 26.3162C29.0005 26.2662 29.3672 25.8495 29.3672 25.4495V12.6328C29.3672 12.3661 29.2672 12.1495 29.1006 11.9828C28.9172 11.8162 28.6838 11.7495 28.4172 11.7662C28.3838 11.7662 28.2839 11.7662 28.2505 11.7662C26.3172 11.9328 23.1339 12.9995 21.4006 14.0995L21.2338 14.1995C20.5005 14.6495 19.4672 14.6495 18.7672 14.2162L18.5172 14.0662C16.7672 12.9662 13.5839 11.9161 11.5672 11.7495C11.5339 11.7495 11.5172 11.7495 11.4839 11.7495Z" fill="#332A89"/>
<path d="M20 30.6833C19.3167 30.6833 18.75 30.1167 18.75 29.4333V13.5C18.75 12.8167 19.3167 12.25 20 12.25C20.6833 12.25 21.25 12.8167 21.25 13.5V29.4333C21.25 30.1333 20.6833 30.6833 20 30.6833Z" fill="#332A89"/>
</svg>
